<mxfile host="app.diagrams.net" modified="2023-08-01T04:36:47.888Z" agent="Mozilla/5.0 (Macintosh; Intel Mac OS X 10_15_7) AppleWebKit/537.36 (KHTML, like Gecko) Chrome/115.0.0.0 Safari/537.36" version="21.6.6" etag="Ywy81GkDVSoaASqJj1kL" type="github">
  <diagram name="Page-1" id="n1sP1j-jqKhxckGY1-EW">
    <mxGraphModel>
      <root>
        <mxCell id="0" />
        <mxCell id="1" parent="0" />
      </root>
    </mxGraphModel>
  </diagram>
</mxfile>
